HIERARCHY
ROOT Hips
{
  OFFSET 7.333 -26.027 -164.856
  CHANNELS 6 Xposition Yposition Zposition Zrotation Xrotation Yrotation
  JOINT LeftUpLeg
  {
    OFFSET 10.092 0.000 0.000
    CHANNELS 3 Zrotation Xrotation Yrotation
    JOINT LeftLeg
    {
      OFFSET 0.000 -38.160 -0.000
    CHANNELS 3 Zrotation Xrotation Yrotation
      JOINT LeftFoot
      {
        OFFSET -0.000 -24.040 0.000
    CHANNELS 3 Zrotation Xrotation Yrotation
        End Site
        {
          OFFSET -0.000 0.000 12.945
        }
      }
    }
  }
  JOINT RightUpLeg
  {
    OFFSET -10.092 -0.000 0.000
    CHANNELS 3 Zrotation Xrotation Yrotation
    JOINT RightLeg
    {
      OFFSET 0.000 -33.046 0.000
    CHANNELS 3 Zrotation Xrotation Yrotation
      JOINT RightFoot
      {
        OFFSET 0.000 -22.031 -0.000
    CHANNELS 3 Zrotation Xrotation Yrotation
        End Site
        {
          OFFSET 0.000 -0.000 11.863
        }
      }
    }
  }
  JOINT Spine
  {
    OFFSET -0.000 16.511 0.000
    CHANNELS 3 Zrotation Xrotation Yrotation
    JOINT LeftShoulder
    {
      OFFSET 0 16.511 0
    CHANNELS 3 Zrotation Xrotation Yrotation
      JOINT LeftArm
      {
        OFFSET 16.337 0.000 0.000
    CHANNELS 3 Zrotation Xrotation Yrotation
        JOINT LeftForeArm
        {
          OFFSET 0.000 -24.030 0.000
    CHANNELS 3 Zrotation Xrotation Yrotation
          JOINT LeftHand
          {
            OFFSET 0.000 -17.629 -0.000
    CHANNELS 3 Zrotation Xrotation Yrotation
            End Site
            {
              OFFSET 0.000 -11.753 -0.000
            }
          }
        }
      }
    }
    JOINT RightShoulder
    {
      OFFSET 0 16.511 0
    CHANNELS 3 Zrotation Xrotation Yrotation
      JOINT RightArm
      {
        OFFSET -16.337 0.000 0.000
    CHANNELS 3 Zrotation Xrotation Yrotation
        JOINT RightForeArm
        {
          OFFSET -0.000 -19.534 0.000
    CHANNELS 3 Zrotation Xrotation Yrotation
          JOINT RightHand
          {
            OFFSET 0.000 -19.514 -0.000
    CHANNELS 3 Zrotation Xrotation Yrotation
            End Site
            {
              OFFSET 0.000 -13.010 -0.000
            }
          }
        }
      }
    }
    JOINT Neck
    {
      OFFSET -0.000 16.511 0.000
    CHANNELS 3 Zrotation Xrotation Yrotation
      JOINT Head
      {
        OFFSET -0.000 12.493 -0.000
    CHANNELS 3 Zrotation Xrotation Yrotation
        End Site
        {
          OFFSET -0.000 8.328 -0.000
        }
      }
    }
  }
}
MOTION
Frames: 15
Frame Time: 0.0333333
0 0 0 4.207038e-01 NaN NaN NaN 7.434979e+00 3.425410e-01 5.074748e+00 -7.701236e+00 NaN 0 0 NaN NaN NaN 8.157373e-02 4.146505e+00 -1.330728e+01 NaN 0 0 NaN NaN -6.164384e-08 NaN 0 0 0 NaN NaN -3.824897e+01 NaN NaN NaN NaN NaN 1.023622e-07 0 0 0 NaN NaN 6.825674e+01 NaN -2.903736e+00 NaN NaN 4.827586e-08 NaN NaN NaN NaN 0 0 NaN 
0 0 0 NaN NaN NaN NaN NaN NaN NaN NaN NaN 0 0 -3.932584e-08 NaN NaN NaN NaN NaN NaN 0 0 2.352941e-08 1.515152e-07 NaN -3.691824e-06 0 0 0 2.616104e+01 -2.347546e+01 NaN NaN -1.827341e+01 NaN NaN 2.941176e-08 NaN 0 0 0 -1.713788e+01 -3.539466e+01 NaN NaN NaN NaN -1.418440e-08 NaN 7.462687e-08 NaN NaN NaN 0 0 -1.886792e-08 
0 0 0 NaN 5.317917e-01 -1.187883e+01 -2.638549e+00 NaN NaN NaN NaN 3.289873e-01 0 0 NaN -4.224631e-01 9.911969e+00 NaN NaN NaN 8.037370e-01 0 0 NaN NaN NaN NaN 0 0 0 NaN NaN NaN 1.032264e+02 NaN 1.199610e+02 7.746479e-08 NaN NaN 0 0 0 NaN NaN NaN -1.079670e+02 NaN -4.735365e+00 NaN NaN NaN 2.857614e-02 7.100451e-01 -4.917153e-04 0 0 NaN 
0 0 0 4.207038e-01 NaN NaN NaN 7.434979e+00 3.425410e-01 5.074748e+00 -7.701236e+00 NaN 0 0 NaN NaN NaN 8.157373e-02 4.146505e+00 -1.330728e+01 NaN 0 0 NaN NaN -6.164384e-08 NaN 0 0 0 NaN NaN -3.824897e+01 NaN NaN NaN NaN NaN 1.023622e-07 0 0 0 NaN NaN 6.825674e+01 NaN -2.903736e+00 NaN NaN 4.827586e-08 NaN NaN NaN NaN 0 0 NaN 
0 0 0 NaN NaN NaN NaN NaN NaN NaN NaN NaN 0 0 -3.932584e-08 NaN NaN NaN NaN NaN NaN 0 0 2.352941e-08 1.515152e-07 NaN -3.691824e-06 0 0 0 2.616104e+01 -2.347546e+01 NaN NaN -1.827341e+01 NaN NaN 2.941176e-08 NaN 0 0 0 -1.713788e+01 -3.539466e+01 NaN NaN NaN NaN -1.418440e-08 NaN 7.462687e-08 NaN NaN NaN 0 0 -1.886792e-08 
0 0 0 NaN 5.317917e-01 -1.187883e+01 -2.638549e+00 NaN NaN NaN NaN 3.289873e-01 0 0 NaN -4.224631e-01 9.911969e+00 NaN NaN NaN 8.037370e-01 0 0 NaN NaN NaN NaN 0 0 0 NaN NaN NaN 1.032264e+02 NaN 1.199610e+02 7.746479e-08 NaN NaN 0 0 0 NaN NaN NaN -1.079670e+02 NaN -4.735365e+00 NaN NaN NaN 2.857614e-02 7.100451e-01 -4.917153e-04 0 0 NaN 
0 0 0 4.207038e-01 NaN NaN NaN 7.434979e+00 3.425410e-01 5.074748e+00 -7.701236e+00 NaN 0 0 NaN NaN NaN 8.157373e-02 4.146505e+00 -1.330728e+01 NaN 0 0 NaN NaN -6.164384e-08 NaN 0 0 0 NaN NaN -3.824897e+01 NaN NaN NaN NaN NaN 1.023622e-07 0 0 0 NaN NaN 6.825674e+01 NaN -2.903736e+00 NaN NaN 4.827586e-08 NaN NaN NaN NaN 0 0 NaN 
0 0 0 NaN NaN NaN NaN NaN NaN NaN NaN NaN 0 0 -3.932584e-08 NaN NaN NaN NaN NaN NaN 0 0 2.352941e-08 1.515152e-07 NaN -3.691824e-06 0 0 0 2.616104e+01 -2.347546e+01 NaN NaN -1.827341e+01 NaN NaN 2.941176e-08 NaN 0 0 0 -1.713788e+01 -3.539466e+01 NaN NaN NaN NaN -1.418440e-08 NaN 7.462687e-08 NaN NaN NaN 0 0 -1.886792e-08 
0 0 0 NaN 5.317917e-01 -1.187883e+01 -2.638549e+00 NaN NaN NaN NaN 3.289873e-01 0 0 NaN -4.224631e-01 9.911969e+00 NaN NaN NaN 8.037370e-01 0 0 NaN NaN NaN NaN 0 0 0 NaN NaN NaN 1.032264e+02 NaN 1.199610e+02 7.746479e-08 NaN NaN 0 0 0 NaN NaN NaN -1.079670e+02 NaN -4.735365e+00 NaN NaN NaN 2.857614e-02 7.100451e-01 -4.917153e-04 0 0 NaN 
0 0 0 4.207038e-01 NaN NaN NaN 7.434979e+00 3.425410e-01 5.074748e+00 -7.701236e+00 NaN 0 0 NaN NaN NaN 8.157373e-02 4.146505e+00 -1.330728e+01 NaN 0 0 NaN NaN -6.164384e-08 NaN 0 0 0 NaN NaN -3.824897e+01 NaN NaN NaN NaN NaN 1.023622e-07 0 0 0 NaN NaN 6.825674e+01 NaN -2.903736e+00 NaN NaN 4.827586e-08 NaN NaN NaN NaN 0 0 NaN 
0 0 0 NaN NaN NaN NaN NaN NaN NaN NaN NaN 0 0 -3.932584e-08 NaN NaN NaN NaN NaN NaN 0 0 2.352941e-08 1.515152e-07 NaN -3.691824e-06 0 0 0 2.616104e+01 -2.347546e+01 NaN NaN -1.827341e+01 NaN NaN 2.941176e-08 NaN 0 0 0 -1.713788e+01 -3.539466e+01 NaN NaN NaN NaN -1.418440e-08 NaN 7.462687e-08 NaN NaN NaN 0 0 -1.886792e-08 
0 0 0 NaN 5.317917e-01 -1.187883e+01 -2.638549e+00 NaN NaN NaN NaN 3.289873e-01 0 0 NaN -4.224631e-01 9.911969e+00 NaN NaN NaN 8.037370e-01 0 0 NaN NaN NaN NaN 0 0 0 NaN NaN NaN 1.032264e+02 NaN 1.199610e+02 7.746479e-08 NaN NaN 0 0 0 NaN NaN NaN -1.079670e+02 NaN -4.735365e+00 NaN NaN NaN 2.857614e-02 7.100451e-01 -4.917153e-04 0 0 NaN 
0 0 0 4.207038e-01 NaN NaN NaN 7.434979e+00 3.425410e-01 5.074748e+00 -7.701236e+00 NaN 0 0 NaN NaN NaN 8.157373e-02 4.146505e+00 -1.330728e+01 NaN 0 0 NaN NaN -6.164384e-08 NaN 0 0 0 NaN NaN -3.824897e+01 NaN NaN NaN NaN NaN 1.023622e-07 0 0 0 NaN NaN 6.825674e+01 NaN -2.903736e+00 NaN NaN 4.827586e-08 NaN NaN NaN NaN 0 0 NaN 
0 0 0 NaN NaN NaN NaN NaN NaN NaN NaN NaN 0 0 -3.932584e-08 NaN NaN NaN NaN NaN NaN 0 0 2.352941e-08 1.515152e-07 NaN -3.691824e-06 0 0 0 2.616104e+01 -2.347546e+01 NaN NaN -1.827341e+01 NaN NaN 2.941176e-08 NaN 0 0 0 -1.713788e+01 -3.539466e+01 NaN NaN NaN NaN -1.418440e-08 NaN 7.462687e-08 NaN NaN NaN 0 0 -1.886792e-08 
0 0 0 NaN 5.317917e-01 -1.187883e+01 -2.638549e+00 NaN NaN NaN NaN 3.289873e-01 0 0 NaN -4.224631e-01 9.911969e+00 NaN NaN NaN 8.037370e-01 0 0 NaN NaN NaN NaN 0 0 0 NaN NaN NaN 1.032264e+02 NaN 1.199610e+02 7.746479e-08 NaN NaN 0 0 0 NaN NaN NaN -1.079670e+02 NaN -4.735365e+00 NaN NaN NaN 2.857614e-02 7.100451e-01 -4.917153e-04 0 0 NaN 
